# xmcd
#
# Track frame offsets:
# 150
# 15027
# 43493
# 67726
# 85303
# 113559
# 131492
# 153389
# 171575
# 185516
# 207818
#
# Disc length: 3126 seconds
#
#
# Revision: 0
# Processed by: cddbd v1.5.1PL0 Copyright (c) Steve Scherf et al.
# Submitted via: FreeRIP 2.60 
#
DISCID=8a0c340b
DTITLE=Bacon Fat - Boogielicious Baby
DYEAR=2004
DGENRE=Blues
TTITLE0=Motorcycle Hotel
TTITLE1=Kick The Boogieman
TTITLE2=Strip Down
TTITLE3=Hangin' Around
TTITLE4=Pony-Tail daydream
TTITLE5=Rub Top Shuffle
TTITLE6=Red Pussycat
TTITLE7=Nasty Boy
TTITLE8=Bad Ass Lowdown 'n Dirty Blues
TTITLE9=Just As Long As We Go
TTITLE10=Plain Sustain
EXTD=
EXTT0=
EXTT1=
EXTT2=
EXTT3=
EXTT4=
EXTT5=
EXTT6=
EXTT7=
EXTT8=
EXTT9=
EXTT10=
PLAYORDER=
